<svg width="15" height="19" viewBox="0 0 15 19" fill="none" xmlns="http://www.w3.org/2000/svg">
<path fill-rule="evenodd" clip-rule="evenodd" d="M9.60942 0.799805H5.15893C4.57821 0.799805 4.12794 1.29652 4.12794 1.88313V8.36968L1.83177 8.36976C1.25106 8.36976 0.800781 8.86648 0.800781 9.45308C0.800781 10.0397 1.25106 10.5364 1.83178 10.5364L4.12794 10.5363V13.1316L1.83177 13.1317C1.25106 13.1317 0.800781 13.6284 0.800781 14.215C0.800781 14.8016 1.25106 15.2983 1.83178 15.2983L4.12794 15.2982V17.1165C4.12794 17.7031 4.57821 18.1998 5.15893 18.1998C5.73965 18.1998 6.18993 17.7031 6.18993 17.1165V15.2982H9.60942C10.1901 15.2982 10.6404 14.8015 10.6404 14.2149C10.6404 13.6283 10.1901 13.1316 9.60942 13.1316H6.18993V10.5363H9.60942C12.1526 10.5363 14.2008 8.34066 14.2008 5.66803C14.2007 2.92842 12.0982 0.799805 9.60942 0.799805ZM12.1388 5.66809C12.1388 7.1691 10.9926 8.36967 9.60942 8.36967H6.18993V2.96645H9.60942C10.9847 2.96645 12.1388 4.14948 12.1388 5.66809Z" fill="#969696"/>
</svg>
